<?xml version="1.0" encoding="UTF-8"?>
<svg width="40px" height="36px" viewBox="0 0 40 36" version="1.1" xmlns="http://www.w3.org/2000/svg" xmlns:xlink="http://www.w3.org/1999/xlink">
    <title>427C90D2-4788-4D6C-B282-BF1F477A928E@1x</title>
    <g id="Branding" stroke="none" stroke-width="1" fill="none" fill-rule="evenodd">
        <g transform="translate(-340.000000, -1923.000000)" id="Group-3">
            <g transform="translate(340.000000, 1923.000000)">
                <rect id="Rectangle-Copy-5" x="0" y="0" width="40" height="36"></rect>
                <g id="Logo/Card/ITMX/40px-Copy-5" fill-rule="nonzero">
                    <g id="Logo-size40,24px-square-01" transform="translate(2.000000, 7.000000)">
                        <rect id="Rectangle" fill="#FFFFFF" x="0" y="0" width="36" height="22.869"></rect>
                        <rect id="Rectangle" fill="#F7B600" x="0.603" y="19.152" width="34.803" height="3.123"></rect>
                        <rect id="Rectangle" fill="#1A1F71" x="0.603" y="0.594" width="34.803" height="3.123"></rect>
                        <path d="M14.526,7.15497017 L10.926,15.732 L8.586,15.732 L6.786,8.883 C6.77042149,8.56235917 6.58523451,8.27429054 6.3,8.127 C5.60355016,7.79549055 4.86906554,7.55066235 4.113,7.398 L4.167,7.15497017 L7.929,7.15497017 C8.44987633,7.15105899 8.89104581,7.53804976 8.955,8.055 L9.855,13.014 L12.159,7.182 L14.526,7.15497017 Z M23.715,12.933 C23.715,10.665 20.592,10.539 20.61,9.531 C20.61,9.225 20.907,8.892 21.555,8.811 C22.305623,8.73885916 23.0617143,8.87265309 23.742,9.198 L24.129,7.398 C23.4633536,7.15169751 22.7597435,7.02376839 22.05,7.02 C19.863,7.02 18.315,8.19 18.306,9.855 C18.306,11.097 19.404,11.781 20.241,12.195 C21.078,12.609 21.402,12.879 21.393,13.257 C21.393,13.833 20.709,14.085 20.07,14.094 C19.2770922,14.1137566 18.4925955,13.9277099 17.793,13.554 L17.388,15.435 C18.1755632,15.7355694 19.0110354,15.891077 19.854,15.894 C22.185,15.894 23.715,14.742 23.715,12.96 M29.511,15.759 L31.563,15.759 L29.763,7.182 L27.9,7.182 C27.5018665,7.19570668 27.1491526,7.44260637 27,7.812 L23.679,15.759 L26.001,15.759 L26.469,14.472 L29.313,14.472 L29.511,15.759 Z M27,12.69 L28.161,9.468 L28.836,12.69 L27,12.69 Z M17.703,7.155 L15.903,15.732 L13.644,15.732 L15.444,7.155 L17.703,7.155 Z" id="Shape" fill="#1A1F71"></path>
                    </g>
                </g>
            </g>
        </g>
    </g>
</svg>